<svg width="148" height="59" viewBox="0 0 148 59" fill="none" xmlns="http://www.w3.org/2000/svg">
<path fill-rule="evenodd" clip-rule="evenodd" d="M35.8776 2.69823C35.8776 4.18842 34.6693 5.39646 33.1788 5.39646C31.6883 5.39646 30.4801 4.18842 30.4801 2.69823C30.4801 1.20804 31.6883 0 33.1788 0C34.6693 0 35.8776 1.20804 35.8776 2.69823ZM28.8929 9.84027C28.8929 10.8922 28.04 11.7449 26.9879 11.7449C25.9358 11.7449 25.0829 10.8922 25.0829 9.84027C25.0829 8.78837 25.9358 7.93563 26.9879 7.93563C28.04 7.93563 28.8929 8.78837 28.8929 9.84027ZM39.3701 11.1099C39.3701 12.1618 38.5172 13.0146 37.4651 13.0146C36.413 13.0146 35.5601 12.1618 35.5601 11.1099C35.5601 10.058 36.413 9.2053 37.4651 9.2053C38.5172 9.2053 39.3701 10.058 39.3701 11.1099ZM55.4045 13.3321C56.895 13.3321 58.1033 12.1241 58.1033 10.6339C58.1033 9.14367 56.895 7.93563 55.4045 7.93563C53.9141 7.93563 52.7058 9.14367 52.7058 10.6339C52.7058 12.1241 53.9141 13.3321 55.4045 13.3321ZM19.2088 7.30101C20.6993 7.30101 21.9076 6.09297 21.9076 4.60278C21.9076 3.11258 20.6993 1.90454 19.2088 1.90454C17.7183 1.90454 16.51 3.11258 16.51 4.60278C16.51 6.09297 17.7183 7.30101 19.2088 7.30101ZM10.7947 12.8558C10.7947 14.346 9.58643 15.5541 8.09594 15.5541C6.60545 15.5541 5.39718 14.346 5.39718 12.8558C5.39718 11.3656 6.60545 10.1576 8.09594 10.1576C9.58643 10.1576 10.7947 11.3656 10.7947 12.8558ZM2.69876 28.8872C4.18925 28.8872 5.39753 27.6792 5.39753 26.189C5.39753 24.6988 4.18925 23.4908 2.69876 23.4908C1.20828 23.4908 0 24.6988 0 26.189C0 27.6792 1.20828 28.8872 2.69876 28.8872ZM7.30186 39.8382C7.30186 41.3284 6.09359 42.5365 4.6031 42.5365C3.11261 42.5365 1.90433 41.3284 1.90433 39.8382C1.90433 38.348 3.11261 37.14 4.6031 37.14C6.09359 37.14 7.30186 38.348 7.30186 39.8382ZM13.176 53.3303C14.6664 53.3303 15.8747 52.1222 15.8747 50.632C15.8747 49.1418 14.6664 47.9338 13.176 47.9338C11.6855 47.9338 10.4772 49.1418 10.4772 50.632C10.4772 52.1222 11.6855 53.3303 13.176 53.3303ZM28.8919 56.0283C28.8919 57.5185 27.6836 58.7265 26.1931 58.7265C24.7027 58.7265 23.4944 57.5185 23.4944 56.0283C23.4944 54.5381 24.7027 53.33 26.1931 53.33C27.6836 53.33 28.8919 54.5381 28.8919 56.0283ZM40.1645 57.1394C41.655 57.1394 42.8633 55.9313 42.8633 54.4411C42.8633 52.9509 41.655 51.7429 40.1645 51.7429C38.674 51.7429 37.4657 52.9509 37.4657 54.4411C37.4657 55.9313 38.674 57.1394 40.1645 57.1394ZM58.1033 35.7117C58.1033 37.2019 56.895 38.41 55.4045 38.41C53.9141 38.41 52.7058 37.2019 52.7058 35.7117C52.7058 34.2215 53.9141 33.0135 55.4045 33.0135C56.895 33.0135 58.1033 34.2215 58.1033 35.7117ZM55.4045 26.3478C56.895 26.3478 58.1033 25.1398 58.1033 23.6496C58.1033 22.1594 56.895 20.9514 55.4045 20.9514C53.9141 20.9514 52.7058 22.1594 52.7058 23.6496C52.7058 25.1398 53.9141 26.3478 55.4045 26.3478ZM58.1033 48.7261C58.1033 50.2163 56.895 51.4244 55.4045 51.4244C53.9141 51.4244 52.7058 50.2163 52.7058 48.7261C52.7058 47.2359 53.9141 46.0279 55.4045 46.0279C56.895 46.0279 58.1033 47.2359 58.1033 48.7261ZM17.4622 15.554C18.5143 15.554 19.3672 14.7013 19.3672 13.6494C19.3672 12.5975 18.5143 11.7447 17.4622 11.7447C16.4101 11.7447 15.5572 12.5975 15.5572 13.6494C15.5572 14.7013 16.4101 15.554 17.4622 15.554ZM13.3344 21.9037C13.3344 22.9556 12.4815 23.8083 11.4294 23.8083C10.3773 23.8083 9.52435 22.9556 9.52435 21.9037C9.52435 20.8518 10.3773 19.9991 11.4294 19.9991C12.4815 19.9991 13.3344 20.8518 13.3344 21.9037ZM9.84219 33.9659C10.8943 33.9659 11.7472 33.1132 11.7472 32.0613C11.7472 31.0094 10.8943 30.1567 9.84219 30.1567C8.79008 30.1567 7.93718 31.0094 7.93718 32.0613C7.93718 33.1132 8.79008 33.9659 9.84219 33.9659ZM15.8744 41.5841C15.8744 42.636 15.0215 43.4887 13.9694 43.4887C12.9173 43.4887 12.0644 42.636 12.0644 41.5841C12.0644 40.5322 12.9173 39.6794 13.9694 39.6794C15.0215 39.6794 15.8744 40.5322 15.8744 41.5841ZM21.9079 49.5211C22.96 49.5211 23.8129 48.6683 23.8129 47.6164C23.8129 46.5645 22.96 45.7118 21.9079 45.7118C20.8558 45.7118 20.0029 46.5645 20.0029 47.6164C20.0029 48.6683 20.8558 49.5211 21.9079 49.5211ZM33.9729 49.2036C33.9729 50.2555 33.12 51.1082 32.0679 51.1082C31.0158 51.1082 30.1629 50.2555 30.1629 49.2036C30.1629 48.1517 31.0158 47.2989 32.0679 47.2989C33.12 47.2989 33.9729 48.1517 33.9729 49.2036ZM41.9108 47.2978C42.9629 47.2978 43.8158 46.445 43.8158 45.3931C43.8158 44.3412 42.9629 43.4885 41.9108 43.4885C40.8587 43.4885 40.0057 44.3412 40.0057 45.3931C40.0057 46.445 40.8587 47.2978 41.9108 47.2978ZM49.8473 37.1401C49.8473 38.192 48.9944 39.0447 47.9423 39.0447C46.8902 39.0447 46.0373 38.192 46.0373 37.1401C46.0373 36.0882 46.8902 35.2355 47.9423 35.2355C48.9944 35.2355 49.8473 36.0882 49.8473 37.1401ZM49.2123 28.8871C50.2644 28.8871 51.1173 28.0344 51.1173 26.9825C51.1173 25.9306 50.2644 25.0779 49.2123 25.0779C48.1602 25.0779 47.3073 25.9306 47.3073 26.9825C47.3073 28.0344 48.1602 28.8871 49.2123 28.8871ZM47.3073 17.4584C47.3073 18.5103 46.4544 19.3631 45.4023 19.3631C44.3502 19.3631 43.4973 18.5103 43.4973 17.4584C43.4973 16.4065 44.3502 15.5538 45.4023 15.5538C46.4544 15.5538 47.3073 16.4065 47.3073 17.4584ZM23.8132 16.5076C24.69 16.5076 25.4007 15.797 25.4007 14.9204C25.4007 14.0438 24.69 13.3332 23.8132 13.3332C22.9365 13.3332 22.2257 14.0438 22.2257 14.9204C22.2257 15.797 22.9365 16.5076 23.8132 16.5076ZM36.8294 14.9204C36.8294 15.797 36.1187 16.5076 35.2419 16.5076C34.3651 16.5076 33.6544 15.797 33.6544 14.9204C33.6544 14.0438 34.3651 13.3332 35.2419 13.3332C36.1187 13.3332 36.8294 14.0438 36.8294 14.9204ZM29.5276 15.5539C30.4043 15.5539 31.1151 14.8433 31.1151 13.9668C31.1151 13.0902 30.4043 12.3796 29.5276 12.3796C28.6508 12.3796 27.9401 13.0902 27.9401 13.9668C27.9401 14.8433 28.6508 15.5539 29.5276 15.5539ZM41.9108 18.4107C41.9108 19.2873 41.2 19.9979 40.3233 19.9979C39.4465 19.9979 38.7357 19.2873 38.7357 18.4107C38.7357 17.5341 39.4465 16.8235 40.3233 16.8235C41.2 16.8235 41.9108 17.5341 41.9108 18.4107ZM44.1333 25.078C45.01 25.078 45.7208 24.3674 45.7208 23.4908C45.7208 22.6143 45.01 21.9037 44.1333 21.9037C43.2565 21.9037 42.5458 22.6143 42.5458 23.4908C42.5458 24.3674 43.2565 25.078 44.1333 25.078ZM46.6723 29.5219C46.6723 30.3985 45.9615 31.1091 45.0848 31.1091C44.208 31.1091 43.4973 30.3985 43.4973 29.5219C43.4973 28.6453 44.208 27.9347 45.0848 27.9347C45.9615 27.9347 46.6723 28.6453 46.6723 29.5219ZM43.8161 36.8227C44.6929 36.8227 45.4036 36.1121 45.4036 35.2355C45.4036 34.3589 44.6929 33.6483 43.8161 33.6483C42.9393 33.6483 42.2286 34.3589 42.2286 35.2355C42.2286 36.1121 42.9393 36.8227 43.8161 36.8227ZM41.9108 40.6317C41.9108 41.5083 41.2 42.2189 40.3233 42.2189C39.4465 42.2189 38.7357 41.5083 38.7357 40.6317C38.7357 39.7552 39.4465 39.0445 40.3233 39.0445C41.2 39.0445 41.9108 39.7552 41.9108 40.6317ZM35.2419 45.3932C36.1187 45.3932 36.8294 44.6826 36.8294 43.806C36.8294 42.9294 36.1187 42.2188 35.2419 42.2188C34.3651 42.2188 33.6544 42.9294 33.6544 43.806C33.6544 44.6826 34.3651 45.3932 35.2419 45.3932ZM31.1151 45.3945C31.1151 46.271 30.4043 46.9817 29.5276 46.9817C28.6508 46.9817 27.9401 46.271 27.9401 45.3945C27.9401 44.5179 28.6508 43.8073 29.5276 43.8073C30.4043 43.8073 31.1151 44.5179 31.1151 45.3945ZM18.7319 19.9979C19.6086 19.9979 20.3194 19.2873 20.3194 18.4107C20.3194 17.5341 19.6086 16.8235 18.7319 16.8235C17.8551 16.8235 17.1444 17.5341 17.1444 18.4107C17.1444 19.2873 17.8551 19.9979 18.7319 19.9979ZM16.5107 23.4908C16.5107 24.3674 15.8 25.078 14.9232 25.078C14.0464 25.078 13.3357 24.3674 13.3357 23.4908C13.3357 22.6143 14.0464 21.9037 14.9232 21.9037C15.8 21.9037 16.5107 22.6143 16.5107 23.4908ZM13.9704 31.1091C14.8471 31.1091 15.5579 30.3985 15.5579 29.5219C15.5579 28.6453 14.8471 27.9347 13.9704 27.9347C13.0936 27.9347 12.3829 28.6453 12.3829 29.5219C12.3829 30.3985 13.0936 31.1091 13.9704 31.1091ZM16.8279 35.2355C16.8279 36.1121 16.1171 36.8227 15.2404 36.8227C14.3636 36.8227 13.6529 36.1121 13.6529 35.2355C13.6529 34.3589 14.3636 33.6483 15.2404 33.6483C16.1171 33.6483 16.8279 34.3589 16.8279 35.2355ZM18.7319 42.2189C19.6086 42.2189 20.3194 41.5083 20.3194 40.6317C20.3194 39.7552 19.6086 39.0445 18.7319 39.0445C17.8551 39.0445 17.1444 39.7552 17.1444 40.6317C17.1444 41.5083 17.8551 42.2189 18.7319 42.2189ZM25.4007 43.806C25.4007 44.6826 24.69 45.3932 23.8132 45.3932C22.9365 45.3932 22.2257 44.6826 22.2257 43.806C22.2257 42.9294 22.9365 42.2188 23.8132 42.2188C24.69 42.2188 25.4007 42.9294 25.4007 43.806Z" fill="url(#paint0_angular_1573_8728)"/>
<path fill-rule="evenodd" clip-rule="evenodd" d="M76.169 16.2085H80.3134C80.1975 17.2436 80.1106 18.5153 80.1106 19.8462V22.679H81.3278C82.69 22.679 83.3276 22.6494 84.255 22.5015V24.9136C83.2986 24.7657 82.7479 24.7362 81.4148 24.7362H80.1106V33.0661C80.1106 34.5152 80.6322 35.0476 82.0234 35.0476C82.7769 35.0476 83.2406 34.8997 84.1391 34.3969L84.6608 37.5319C83.4145 38.005 82.5451 38.1529 81.038 38.1529C77.705 38.1529 76.3718 36.9404 76.3718 33.835V24.7362H75.2705C74.1982 24.7362 73.6475 24.7657 72.6911 24.9136V22.5015C73.5316 22.6494 74.0823 22.679 75.2995 22.679H76.3718V19.8462C76.3718 18.5745 76.2849 17.2732 76.169 16.2085ZM87.06 14.2133H91.2448C91.0975 15.3323 91.0385 16.4219 91.0385 18.1004V22.3115C91.0385 22.6943 91.0385 22.8415 90.9796 23.5777C92.8068 21.2808 94.3982 20.4562 97.08 20.4562C100.852 20.4562 103.004 22.6059 103.004 26.4047V33.8256C103.004 35.4453 103.063 36.5643 103.239 37.6539H98.9662C99.1135 36.3287 99.1725 35.3275 99.1725 33.8256V27.2882C99.1725 25.9336 98.9662 24.9427 98.5209 24.269C98.0756 23.5953 97.2203 23.1259 96.4246 23.1259C94.2143 23.1259 92.3647 23.5962 91.0385 26.541V33.8256C91.0385 35.2686 91.0975 36.3876 91.2743 37.6539H87.0305C87.2073 36.3876 87.2663 35.5042 87.2663 33.8256V18.0709C87.2663 16.3041 87.2073 15.3912 87.06 14.2133ZM122.191 29.5397H109.356C109.207 31.4879 109.769 33.0594 110.447 33.8938C111.303 34.9296 112.631 35.5051 114.136 35.5051C115.582 35.5051 116.821 34.9872 117.677 34.0665C118.031 33.6636 118.237 33.3471 118.532 32.5702L122.014 33.6636C121.335 35.0447 120.952 35.5914 120.214 36.3108C118.68 37.7782 116.614 38.5263 114.136 38.5263C108.913 38.5263 105.608 35.1311 105.608 29.7505C105.608 24.4274 108.883 20.9458 113.929 20.9458C117.381 20.9458 120.096 22.6147 121.276 25.492C121.837 26.8731 122.103 27.4543 122.191 29.4109C122.191 29.4684 122.132 28.8779 122.191 29.5397ZM109.224 28.1778H118.326C118.115 26.3222 117.753 25.1835 117 24.1292C116.186 22.9905 115.161 22.4423 113.745 22.4423C111.394 22.4423 109.676 24.6353 109.224 28.1778ZM124.934 14.5867H129.422V18.3272H124.934V14.5867ZM124.934 21.3206H129.422C129.269 22.4057 129.207 23.3734 129.207 25.1622V34.3115C129.207 35.9243 129.269 36.9214 129.422 38.153H124.934C125.118 36.8334 125.18 35.807 125.18 34.3408V25.1328C125.18 23.52 125.118 22.5229 124.934 21.3206ZM144.126 37.735V35.8336C142.978 36.9452 142.261 37.3547 141.084 37.6765C140.252 37.9105 139.333 38.0275 138.415 38.0275C134.913 38.0275 132.789 36.1846 132.789 33.1132C132.789 31.0655 134.168 30.1121 135.847 29.4417C137.525 28.7713 140.022 28.3853 144.126 28.2976V25.7124C144.126 24.0158 143.007 23.1382 140.826 23.1382C139.678 23.1382 138.501 23.46 137.841 23.9865C137.295 24.3961 137.037 24.8056 136.693 25.8587L133.019 25.1859C133.679 23.4893 134.196 22.7287 135.286 21.9389C136.693 20.8858 138.3 20.4471 140.768 20.4471C143.524 20.4471 145.188 20.9443 146.422 22.1729C147.398 23.109 147.771 24.2206 147.771 26.2097V34.0785C147.771 35.6288 147.829 36.4187 148.001 37.735H144.126ZM143.886 30.9257V29.4243C137.707 29.5559 136.031 30.5354 136.031 32.8776C136.031 34.2889 137.064 35.1598 138.718 35.1598C140.283 35.1598 141.819 34.5592 142.823 33.5683C143.531 32.8476 143.886 31.9767 143.886 30.9257Z" fill="#E5495F"/>
<defs>
<radialGradient id="paint0_angular_1573_8728" cx="0" cy="0" r="1" gradientUnits="userSpaceOnUse" gradientTransform="translate(29.0517 29.3632) scale(29.0517 29.3632)">
<stop offset="0.0106416" stop-color="#2C4699"/>
<stop offset="0.0183301" stop-color="#F94100"/>
<stop offset="0.116055" stop-color="#F94100"/>
<stop offset="0.379967" stop-color="#2C4699"/>
<stop offset="0.570629" stop-color="#E5495F"/>
</radialGradient>
</defs>
</svg>
