<svg width="148" height="59" viewBox="0 0 148 59" fill="none" xmlns="http://www.w3.org/2000/svg">
<path fill-rule="evenodd" clip-rule="evenodd" d="M35.8777 2.6982C35.8777 4.18837 34.6695 5.3964 33.179 5.3964C31.6885 5.3964 30.4803 4.18837 30.4803 2.6982C30.4803 1.20803 31.6885 0 33.179 0C34.6695 0 35.8777 1.20803 35.8777 2.6982ZM28.8913 9.84012C28.8913 10.892 28.0384 11.7447 26.9863 11.7447C25.9342 11.7447 25.0813 10.892 25.0813 9.84012C25.0813 8.78823 25.9342 7.9355 26.9863 7.9355C28.0384 7.9355 28.8913 8.78823 28.8913 9.84012ZM39.3687 11.1099C39.3687 12.1618 38.5158 13.0145 37.4637 13.0145C36.4116 13.0145 35.5587 12.1618 35.5587 11.1099C35.5587 10.058 36.4116 9.20525 37.4637 9.20525C38.5158 9.20525 39.3687 10.058 39.3687 11.1099ZM55.4042 13.3319C56.8947 13.3319 58.103 12.1239 58.103 10.6337C58.103 9.14353 56.8947 7.9355 55.4042 7.9355C53.9138 7.9355 52.7055 9.14353 52.7055 10.6337C52.7055 12.1239 53.9138 13.3319 55.4042 13.3319ZM19.2077 7.30089C20.6982 7.30089 21.9064 6.09287 21.9064 4.60269C21.9064 3.11252 20.6982 1.90449 19.2077 1.90449C17.7172 1.90449 16.509 3.11252 16.509 4.60269C16.509 6.09287 17.7172 7.30089 19.2077 7.30089ZM10.7933 12.8557C10.7933 14.3458 9.58501 15.5539 8.09454 15.5539C6.60407 15.5539 5.39581 14.3458 5.39581 12.8557C5.39581 11.3655 6.60407 10.1575 8.09454 10.1575C9.58501 10.1575 10.7933 11.3655 10.7933 12.8557ZM2.69873 28.8869C4.1892 28.8869 5.39746 27.6789 5.39746 26.1887C5.39746 24.6985 4.1892 23.4905 2.69873 23.4905C1.20826 23.4905 0 24.6985 0 26.1887C0 27.6789 1.20826 28.8869 2.69873 28.8869ZM7.30255 39.8377C7.30255 41.3279 6.09428 42.5359 4.60381 42.5359C3.11334 42.5359 1.90508 41.3279 1.90508 39.8377C1.90508 38.3476 3.11334 37.1395 4.60381 37.1395C6.09428 37.1395 7.30255 38.3476 7.30255 39.8377ZM13.1762 53.3297C14.6666 53.3297 15.8749 52.1217 15.8749 50.6315C15.8749 49.1413 14.6666 47.9333 13.1762 47.9333C11.6857 47.9333 10.4774 49.1413 10.4774 50.6315C10.4774 52.1217 11.6857 53.3297 13.1762 53.3297ZM28.8921 56.0275C28.8921 57.5177 27.6838 58.7257 26.1933 58.7257C24.7029 58.7257 23.4946 57.5177 23.4946 56.0275C23.4946 54.5373 24.7029 53.3293 26.1933 53.3293C27.6838 53.3293 28.8921 54.5373 28.8921 56.0275ZM40.1636 57.1387C41.6541 57.1387 42.8623 55.9307 42.8623 54.4405C42.8623 52.9503 41.6541 51.7423 40.1636 51.7423C38.6731 51.7423 37.4649 52.9503 37.4649 54.4405C37.4649 55.9307 38.6731 57.1387 40.1636 57.1387ZM58.103 35.7113C58.103 37.2015 56.8947 38.4095 55.4042 38.4095C53.9138 38.4095 52.7055 37.2015 52.7055 35.7113C52.7055 34.2212 53.9138 33.0131 55.4042 33.0131C56.8947 33.0131 58.103 34.2212 58.103 35.7113ZM55.4042 26.3475C56.8947 26.3475 58.103 25.1394 58.103 23.6493C58.103 22.1591 56.8947 20.9511 55.4042 20.9511C53.9138 20.9511 52.7055 22.1591 52.7055 23.6493C52.7055 25.1394 53.9138 26.3475 55.4042 26.3475ZM58.103 48.7256C58.103 50.2158 56.8947 51.4238 55.4042 51.4238C53.9138 51.4238 52.7055 50.2158 52.7055 48.7256C52.7055 47.2354 53.9138 46.0274 55.4042 46.0274C56.8947 46.0274 58.103 47.2354 58.103 48.7256ZM17.4609 15.5538C18.513 15.5538 19.3659 14.7011 19.3659 13.6492C19.3659 12.5973 18.513 11.7446 17.4609 11.7446C16.4088 11.7446 15.5559 12.5973 15.5559 13.6492C15.5559 14.7011 16.4088 15.5538 17.4609 15.5538ZM13.3343 21.9035C13.3343 22.9554 12.4814 23.8081 11.4293 23.8081C10.3773 23.8081 9.52436 22.9554 9.52436 21.9035C9.52436 20.8516 10.3773 19.9989 11.4293 19.9989C12.4814 19.9989 13.3343 20.8516 13.3343 21.9035ZM9.84161 33.9656C10.8937 33.9656 11.7466 33.1129 11.7466 32.061C11.7466 31.0091 10.8937 30.1564 9.84161 30.1564C8.78951 30.1564 7.93662 31.0091 7.93662 32.061C7.93662 33.1129 8.78951 33.9656 9.84161 33.9656ZM15.8751 41.5836C15.8751 42.6355 15.0222 43.4882 13.9702 43.4882C12.9181 43.4882 12.0652 42.6355 12.0652 41.5836C12.0652 40.5317 12.9181 39.679 13.9702 39.679C15.0222 39.679 15.8751 40.5317 15.8751 41.5836ZM21.9078 49.5205C22.9599 49.5205 23.8128 48.6678 23.8128 47.6159C23.8128 46.564 22.9599 45.7113 21.9078 45.7113C20.8557 45.7113 20.0028 46.564 20.0028 47.6159C20.0028 48.6678 20.8557 49.5205 21.9078 49.5205ZM33.9729 49.203C33.9729 50.2549 33.12 51.1077 32.0679 51.1077C31.0158 51.1077 30.1629 50.2549 30.1629 49.203C30.1629 48.1512 31.0158 47.2984 32.0679 47.2984C33.12 47.2984 33.9729 48.1512 33.9729 49.203ZM41.9107 47.2972C42.9627 47.2972 43.8156 46.4445 43.8156 45.3926C43.8156 44.3407 42.9627 43.4879 41.9107 43.4879C40.8586 43.4879 40.0057 44.3407 40.0057 45.3926C40.0057 46.4445 40.8586 47.2972 41.9107 47.2972ZM49.8461 37.1396C49.8461 38.1915 48.9932 39.0443 47.9411 39.0443C46.889 39.0443 46.0362 38.1915 46.0362 37.1396C46.0362 36.0878 46.889 35.235 47.9411 35.235C48.9932 35.235 49.8461 36.0878 49.8461 37.1396ZM49.2115 28.8868C50.2636 28.8868 51.1165 28.0341 51.1165 26.9822C51.1165 25.9303 50.2636 25.0776 49.2115 25.0776C48.1594 25.0776 47.3066 25.9303 47.3066 26.9822C47.3066 28.0341 48.1594 28.8868 49.2115 28.8868ZM47.3074 17.4583C47.3074 18.5102 46.4545 19.3629 45.4024 19.3629C44.3503 19.3629 43.4974 18.5102 43.4974 17.4583C43.4974 16.4064 44.3503 15.5537 45.4024 15.5537C46.4545 15.5537 47.3074 16.4064 47.3074 17.4583ZM23.8138 16.5074C24.6905 16.5074 25.4013 15.7968 25.4013 14.9202C25.4013 14.0436 24.6905 13.333 23.8138 13.333C22.937 13.333 22.2263 14.0436 22.2263 14.9202C22.2263 15.7968 22.937 16.5074 23.8138 16.5074ZM36.8297 14.9202C36.8297 15.7968 36.1189 16.5074 35.2422 16.5074C34.3654 16.5074 33.6547 15.7968 33.6547 14.9202C33.6547 14.0436 34.3654 13.333 35.2422 13.333C36.1189 13.333 36.8297 14.0436 36.8297 14.9202ZM29.5269 15.5538C30.4037 15.5538 31.1144 14.8432 31.1144 13.9667C31.1144 13.0901 30.4037 12.3795 29.5269 12.3795C28.6502 12.3795 27.9394 13.0901 27.9394 13.9667C27.9394 14.8432 28.6502 15.5538 29.5269 15.5538ZM41.9102 18.4105C41.9102 19.287 41.1995 19.9976 40.3228 19.9976C39.446 19.9976 38.7353 19.287 38.7353 18.4105C38.7353 17.5339 39.446 16.8233 40.3228 16.8233C41.1995 16.8233 41.9102 17.5339 41.9102 18.4105ZM44.1329 25.0777C45.0097 25.0777 45.7204 24.3671 45.7204 23.4906C45.7204 22.614 45.0097 21.9034 44.1329 21.9034C43.2562 21.9034 42.5454 22.614 42.5454 23.4906C42.5454 24.3671 43.2562 25.0777 44.1329 25.0777ZM46.6724 29.5215C46.6724 30.3981 45.9617 31.1087 45.0849 31.1087C44.2082 31.1087 43.4974 30.3981 43.4974 29.5215C43.4974 28.6449 44.2082 27.9343 45.0849 27.9343C45.9617 27.9343 46.6724 28.6449 46.6724 29.5215ZM43.8156 36.8223C44.6923 36.8223 45.4031 36.1117 45.4031 35.2351C45.4031 34.3586 44.6923 33.648 43.8156 33.648C42.9388 33.648 42.2281 34.3586 42.2281 35.2351C42.2281 36.1117 42.9388 36.8223 43.8156 36.8223ZM41.9102 40.6313C41.9102 41.5078 41.1995 42.2184 40.3228 42.2184C39.446 42.2184 38.7353 41.5078 38.7353 40.6313C38.7353 39.7547 39.446 39.0441 40.3228 39.0441C41.1995 39.0441 41.9102 39.7547 41.9102 40.6313ZM35.2422 45.3927C36.1189 45.3927 36.8297 44.6821 36.8297 43.8055C36.8297 42.9289 36.1189 42.2183 35.2422 42.2183C34.3654 42.2183 33.6547 42.9289 33.6547 43.8055C33.6547 44.6821 34.3654 45.3927 35.2422 45.3927ZM31.1144 45.3939C31.1144 46.2705 30.4037 46.9811 29.5269 46.9811C28.6502 46.9811 27.9394 46.2705 27.9394 45.3939C27.9394 44.5173 28.6502 43.8067 29.5269 43.8067C30.4037 43.8067 31.1144 44.5173 31.1144 45.3939ZM18.7311 19.9976C19.6079 19.9976 20.3186 19.287 20.3186 18.4105C20.3186 17.5339 19.6079 16.8233 18.7311 16.8233C17.8544 16.8233 17.1436 17.5339 17.1436 18.4105C17.1436 19.287 17.8544 19.9976 18.7311 19.9976ZM16.5116 23.4906C16.5116 24.3671 15.8009 25.0777 14.9241 25.0777C14.0474 25.0777 13.3366 24.3671 13.3366 23.4906C13.3366 22.614 14.0474 21.9034 14.9241 21.9034C15.8009 21.9034 16.5116 22.614 16.5116 23.4906ZM13.971 31.1087C14.8478 31.1087 15.5585 30.3981 15.5585 29.5215C15.5585 28.6449 14.8478 27.9343 13.971 27.9343C13.0943 27.9343 12.3836 28.6449 12.3836 29.5215C12.3836 30.3981 13.0943 31.1087 13.971 31.1087ZM16.8289 35.2351C16.8289 36.1117 16.1182 36.8223 15.2414 36.8223C14.3647 36.8223 13.654 36.1117 13.654 35.2351C13.654 34.3586 14.3647 33.648 15.2414 33.648C16.1182 33.648 16.8289 34.3586 16.8289 35.2351ZM18.7311 42.2184C19.6079 42.2184 20.3186 41.5078 20.3186 40.6313C20.3186 39.7547 19.6079 39.0441 18.7311 39.0441C17.8544 39.0441 17.1436 39.7547 17.1436 40.6313C17.1436 41.5078 17.8544 42.2184 18.7311 42.2184ZM25.4013 43.8055C25.4013 44.6821 24.6905 45.3927 23.8138 45.3927C22.937 45.3927 22.2263 44.6821 22.2263 43.8055C22.2263 42.9289 22.937 42.2183 23.8138 42.2183C24.6905 42.2183 25.4013 42.9289 25.4013 43.8055Z" fill="white"/>
<path fill-rule="evenodd" clip-rule="evenodd" d="M76.1685 16.2084H80.3129C80.197 17.2435 80.11 18.5152 80.11 19.846V22.6788H81.3273C82.6894 22.6788 83.327 22.6492 84.2545 22.5013V24.9134C83.2981 24.7655 82.7474 24.7359 81.4142 24.7359H80.11V33.0657C80.11 34.5149 80.6317 35.0472 82.0229 35.0472C82.7764 35.0472 83.2401 34.8993 84.1385 34.3966L84.6602 37.5314C83.414 38.0046 82.5445 38.1525 81.0375 38.1525C77.7045 38.1525 76.3714 36.94 76.3714 33.8347V24.7359H75.2701C74.1977 24.7359 73.6471 24.7655 72.6907 24.9134V22.5013C73.5311 22.6492 74.0818 22.6788 75.299 22.6788H76.3714V19.846C76.3714 18.5743 76.2844 17.273 76.1685 16.2084ZM87.0591 14.2131H91.2439C91.0965 15.3321 91.0376 16.4216 91.0376 18.1002V22.3112C91.0376 22.694 91.0376 22.8412 90.9786 23.5774C92.8058 21.2805 94.3972 20.456 97.079 20.456C100.851 20.456 103.003 22.6057 103.003 26.4044V33.8252C103.003 35.4448 103.062 36.5638 103.238 37.6534H98.9651C99.1125 36.3283 99.1714 35.327 99.1714 33.8252V27.2878C99.1714 25.9332 98.9651 24.9424 98.5198 24.2687C98.0746 23.595 97.2193 23.1256 96.4236 23.1256C94.2133 23.1256 92.3637 23.5959 91.0376 26.5407V33.8252C91.0376 35.2681 91.0965 36.3872 91.2733 37.6534H87.0296C87.2064 36.3872 87.2653 35.5037 87.2653 33.8252V18.0707C87.2653 16.3039 87.2064 15.391 87.0591 14.2131ZM122.191 29.5393H109.355C109.207 31.4875 109.769 33.0589 110.447 33.8933C111.303 34.9292 112.631 35.5046 114.136 35.5046C115.581 35.5046 116.821 34.9867 117.676 34.066C118.03 33.6632 118.237 33.3467 118.532 32.5698L122.014 33.6632C121.335 35.0443 120.952 35.5909 120.214 36.3103C118.68 37.7777 116.614 38.5258 114.136 38.5258C108.913 38.5258 105.608 35.1306 105.608 29.75C105.608 24.4271 108.883 20.9455 113.929 20.9455C117.381 20.9455 120.096 22.6144 121.276 25.4917C121.837 26.8728 122.102 27.4539 122.191 29.4105C122.191 29.468 122.132 28.8775 122.191 29.5393ZM109.223 28.1774H118.325C118.114 26.3218 117.753 25.1831 116.999 24.1288C116.185 22.9902 115.161 22.442 113.744 22.442C111.393 22.442 109.675 24.6349 109.223 28.1774ZM124.933 14.5864H129.422V18.3269H124.933V14.5864ZM124.933 21.3203H129.422C129.268 22.4053 129.207 23.373 129.207 25.1618V34.311C129.207 35.9238 129.268 36.9209 129.422 38.1525H124.933C125.118 36.8329 125.179 35.8066 125.179 34.3403V25.1325C125.179 23.5197 125.118 22.5226 124.933 21.3203ZM144.125 37.7345V35.8331C142.977 36.9447 142.259 37.3542 141.083 37.676C140.25 37.91 139.332 38.027 138.413 38.027C134.912 38.027 132.788 36.1841 132.788 33.1127C132.788 31.0651 134.167 30.1117 135.845 29.4413C137.524 28.7709 140.021 28.3849 144.125 28.2972V25.712C144.125 24.0154 143.006 23.1379 140.824 23.1379C139.676 23.1379 138.5 23.4597 137.839 23.9862C137.294 24.3957 137.036 24.8052 136.691 25.8583L133.018 25.1855C133.678 23.4889 134.195 22.7284 135.285 21.9386C136.691 20.8855 138.299 20.4467 140.767 20.4467C143.522 20.4467 145.187 20.944 146.421 22.1726C147.397 23.1086 147.77 24.2202 147.77 26.2093V34.078C147.77 35.6284 147.827 36.4182 147.999 37.7345H144.125ZM143.885 30.9254V29.4239C137.706 29.5555 136.03 30.535 136.03 32.8772C136.03 34.2885 137.063 35.1593 138.717 35.1593C140.282 35.1593 141.818 34.5588 142.822 33.5678C143.53 32.8472 143.885 31.9763 143.885 30.9254Z" fill="white"/>
</svg>
