<svg width="1004" height="1014" viewBox="0 0 1004 1014" fill="none" xmlns="http://www.w3.org/2000/svg">
<path id="Mask" fill-rule="evenodd" clip-rule="evenodd" d="M619.486 46.5895C619.486 72.3201 598.623 93.1789 572.887 93.1789C547.151 93.1789 526.288 72.3201 526.288 46.5895C526.288 20.8588 547.151 0 572.887 0C598.623 0 619.486 20.8588 619.486 46.5895ZM498.885 169.911C498.885 188.074 484.158 202.798 465.992 202.798C447.825 202.798 433.099 188.074 433.099 169.911C433.099 151.748 447.825 137.025 465.992 137.025C484.158 137.025 498.885 151.748 498.885 169.911ZM679.789 191.835C679.789 209.998 665.062 224.722 646.896 224.722C628.73 224.722 614.003 209.998 614.003 191.835C614.003 173.672 628.73 158.948 646.896 158.948C665.062 158.948 679.789 173.672 679.789 191.835ZM956.642 230.203C982.377 230.203 1003.24 209.345 1003.24 183.614C1003.24 157.883 982.377 137.025 956.642 137.025C930.906 137.025 910.043 157.883 910.043 183.614C910.043 209.345 930.906 230.203 956.642 230.203ZM331.674 126.06C357.41 126.06 378.272 105.201 378.272 79.4707C378.272 53.74 357.41 32.8812 331.674 32.8812C305.938 32.8812 285.075 53.74 285.075 79.4707C285.075 105.201 305.938 126.06 331.674 126.06ZM186.399 221.971C186.399 247.701 165.536 268.56 139.801 268.56C114.065 268.56 93.2019 247.701 93.2019 221.971C93.2019 196.24 114.065 175.381 139.801 175.381C165.536 175.381 186.399 196.24 186.399 221.971ZM46.5987 498.784C72.3344 498.784 93.1973 477.925 93.1973 452.194C93.1973 426.464 72.3344 405.605 46.5987 405.605C20.8629 405.605 0 426.464 0 452.194C0 477.925 20.8629 498.784 46.5987 498.784ZM126.078 687.882C126.078 713.613 105.215 734.472 79.4796 734.472C53.7438 734.472 32.8809 713.613 32.8809 687.882C32.8809 662.152 53.7438 641.293 79.4796 641.293C105.215 641.293 126.078 662.152 126.078 687.882ZM227.515 920.828C253.251 920.828 274.114 899.969 274.114 874.238C274.114 848.508 253.251 827.649 227.515 827.649C201.78 827.649 180.917 848.508 180.917 874.238C180.917 899.969 201.78 920.828 227.515 920.828ZM498.88 967.409C498.88 993.139 478.017 1014 452.282 1014C426.546 1014 405.683 993.139 405.683 967.409C405.683 941.678 426.546 920.819 452.282 920.819C478.017 920.819 498.88 941.678 498.88 967.409ZM693.508 986.588C719.244 986.588 740.107 965.729 740.107 939.999C740.107 914.268 719.244 893.409 693.508 893.409C667.773 893.409 646.91 914.268 646.91 939.999C646.91 965.729 667.773 986.588 693.508 986.588ZM1003.24 616.618C1003.24 642.349 982.377 663.207 956.642 663.207C930.906 663.207 910.043 642.349 910.043 616.618C910.043 590.887 930.906 570.028 956.642 570.028C982.377 570.028 1003.24 590.887 1003.24 616.618ZM956.642 454.947C982.377 454.947 1003.24 434.088 1003.24 408.358C1003.24 382.627 982.377 361.768 956.642 361.768C930.906 361.768 910.043 382.627 910.043 408.358C910.043 434.088 930.906 454.947 956.642 454.947ZM1003.24 841.335C1003.24 867.066 982.377 887.925 956.642 887.925C930.906 887.925 910.043 867.066 910.043 841.335C910.043 815.604 930.906 794.746 956.642 794.746C982.377 794.746 1003.24 815.604 1003.24 841.335ZM301.526 268.562C319.692 268.562 334.419 253.839 334.419 235.676C334.419 217.513 319.692 202.789 301.526 202.789C283.359 202.789 268.633 217.513 268.633 235.676C268.633 253.839 283.359 268.562 301.526 268.562ZM230.252 378.202C230.252 396.365 215.525 411.089 197.359 411.089C179.193 411.089 164.466 396.365 164.466 378.202C164.466 360.039 179.193 345.315 197.359 345.315C215.525 345.315 230.252 360.039 230.252 378.202ZM169.953 586.472C188.12 586.472 202.846 571.748 202.846 553.586C202.846 535.423 188.12 520.699 169.953 520.699C151.787 520.699 137.06 535.423 137.06 553.586C137.06 571.748 151.787 586.472 169.953 586.472ZM274.108 718.009C274.108 736.172 259.381 750.896 241.214 750.896C223.048 750.896 208.321 736.172 208.321 718.009C208.321 699.846 223.048 685.122 241.214 685.122C259.381 685.122 274.108 699.846 274.108 718.009ZM378.265 855.068C396.431 855.068 411.158 840.344 411.158 822.181C411.158 804.018 396.431 789.294 378.265 789.294C360.098 789.294 345.372 804.018 345.372 822.181C345.372 840.344 360.098 855.068 378.265 855.068ZM586.597 849.587C586.597 867.75 571.87 882.474 553.704 882.474C535.537 882.474 520.811 867.75 520.811 849.587C520.811 831.424 535.537 816.7 553.704 816.7C571.87 816.7 586.597 831.424 586.597 849.587ZM723.66 816.665C741.826 816.665 756.553 801.941 756.553 783.778C756.553 765.615 741.826 750.892 723.66 750.892C705.493 750.892 690.766 765.615 690.766 783.778C690.766 801.941 705.493 816.665 723.66 816.665ZM860.707 641.274C860.707 659.437 845.98 674.161 827.814 674.161C809.648 674.161 794.921 659.437 794.921 641.274C794.921 623.111 809.648 608.387 827.814 608.387C845.98 608.387 860.707 623.111 860.707 641.274ZM849.742 498.777C867.909 498.777 882.636 484.053 882.636 465.891C882.636 447.728 867.909 433.004 849.742 433.004C831.576 433.004 816.849 447.728 816.849 465.891C816.849 484.053 831.576 498.777 849.742 498.777ZM816.851 301.44C816.851 319.603 802.124 334.327 783.957 334.327C765.791 334.327 751.064 319.603 751.064 301.44C751.064 283.278 765.791 268.554 783.957 268.554C802.124 268.554 816.851 283.278 816.851 301.44ZM411.162 285.033C426.3 285.033 438.573 272.763 438.573 257.627C438.573 242.491 426.3 230.221 411.162 230.221C396.023 230.221 383.751 242.491 383.751 257.627C383.751 272.763 396.023 285.033 411.162 285.033ZM635.933 257.627C635.933 272.763 623.661 285.033 608.522 285.033C593.383 285.033 581.111 272.763 581.111 257.627C581.111 242.491 593.383 230.221 608.522 230.221C623.661 230.221 635.933 242.491 635.933 257.627ZM509.843 268.575C524.981 268.575 537.253 256.305 537.253 241.17C537.253 226.034 524.981 213.764 509.843 213.764C494.704 213.764 482.432 226.034 482.432 241.17C482.432 256.305 494.704 268.575 509.843 268.575ZM723.648 317.883C723.648 333.019 711.375 345.289 696.237 345.289C681.098 345.289 668.826 333.019 668.826 317.883C668.826 302.747 681.098 290.477 696.237 290.477C711.375 290.477 723.648 302.747 723.648 317.883ZM762.035 433.003C777.174 433.003 789.446 420.734 789.446 405.598C789.446 390.462 777.174 378.192 762.035 378.192C746.897 378.192 734.624 390.462 734.624 405.598C734.624 420.734 746.897 433.003 762.035 433.003ZM805.886 509.746C805.886 524.881 793.614 537.151 778.475 537.151C763.337 537.151 751.064 524.881 751.064 509.746C751.064 494.61 763.337 482.34 778.475 482.34C793.614 482.34 805.886 494.61 805.886 509.746ZM756.548 635.793C771.687 635.793 783.959 623.523 783.959 608.387C783.959 593.251 771.687 580.981 756.548 580.981C741.41 580.981 729.137 593.251 729.137 608.387C729.137 623.523 741.41 635.793 756.548 635.793ZM723.648 701.582C723.648 716.717 711.375 728.987 696.237 728.987C681.098 728.987 668.826 716.717 668.826 701.582C668.826 686.446 681.098 674.176 696.237 674.176C711.375 674.176 723.648 686.446 723.648 701.582ZM608.522 783.797C623.661 783.797 635.933 771.527 635.933 756.391C635.933 741.255 623.661 728.986 608.522 728.986C593.383 728.986 581.111 741.255 581.111 756.391C581.111 771.527 593.383 783.797 608.522 783.797ZM537.253 783.814C537.253 798.95 524.981 811.22 509.843 811.22C494.704 811.22 482.432 798.95 482.432 783.814C482.432 768.679 494.704 756.409 509.843 756.409C524.981 756.409 537.253 768.679 537.253 783.814ZM323.447 345.289C338.586 345.289 350.858 333.019 350.858 317.883C350.858 302.747 338.586 290.477 323.447 290.477C308.308 290.477 296.036 302.747 296.036 317.883C296.036 333.019 308.308 345.289 323.447 345.289ZM285.074 405.598C285.074 420.734 272.802 433.003 257.663 433.003C242.525 433.003 230.252 420.734 230.252 405.598C230.252 390.462 242.525 378.192 257.663 378.192C272.802 378.192 285.074 390.462 285.074 405.598ZM241.221 537.151C256.359 537.151 268.632 524.881 268.632 509.746C268.632 494.61 256.359 482.34 241.221 482.34C226.082 482.34 213.81 494.61 213.81 509.746C213.81 524.881 226.082 537.151 241.221 537.151ZM290.561 608.387C290.561 623.523 278.289 635.793 263.15 635.793C248.012 635.793 235.739 623.523 235.739 608.387C235.739 593.251 248.012 580.981 263.15 580.981C278.289 580.981 290.561 593.251 290.561 608.387ZM323.447 728.987C338.586 728.987 350.858 716.717 350.858 701.582C350.858 686.446 338.586 674.176 323.447 674.176C308.308 674.176 296.036 686.446 296.036 701.582C296.036 716.717 308.308 728.987 323.447 728.987ZM438.573 756.391C438.573 771.527 426.3 783.797 411.162 783.797C396.023 783.797 383.751 771.527 383.751 756.391C383.751 741.255 396.023 728.986 411.162 728.986C426.3 728.986 438.573 741.255 438.573 756.391Z" fill="white" fill-opacity="0.9"/>
</svg>
