<svg width="235" height="43" viewBox="0 0 235 43" fill="none" xmlns="http://www.w3.org/2000/svg">
<g opacity="0.33">
<path d="M214.792 19.1914C213.054 19.1914 211.591 20.6398 211.591 22.3598C211.591 24.0798 213.054 25.5283 214.792 25.5283C216.529 25.5283 217.992 24.0798 217.992 22.3598C217.992 20.6398 216.529 19.1914 214.792 19.1914ZM223.296 19.1914C221.558 19.1914 220.095 20.6398 220.095 22.3598C220.095 24.0798 221.558 25.5283 223.296 25.5283C225.033 25.5283 226.496 24.0798 226.496 22.3598C226.496 20.6398 225.033 19.1914 223.296 19.1914ZM197.693 19.1914C195.955 19.1914 194.492 20.6398 194.492 22.3598C194.492 24.0798 195.955 25.5283 197.693 25.5283C199.43 25.5283 200.893 24.0798 200.893 22.3598C200.893 20.6398 199.521 19.1914 197.693 19.1914ZM206.288 19.1914C204.551 19.1914 203.088 20.6398 203.088 22.3598C203.088 24.0798 204.551 25.5283 206.288 25.5283C208.025 25.5283 209.488 24.0798 209.488 22.3598C209.397 20.6398 208.025 19.1914 206.288 19.1914ZM206.288 10.7725C204.551 10.7725 203.088 12.2209 203.088 13.9409C203.088 15.6609 204.551 17.1093 206.288 17.1093C208.025 17.1093 209.488 15.6609 209.488 13.9409C209.397 12.2209 208.025 10.7725 206.288 10.7725ZM231.8 19.1914C230.062 19.1914 228.599 20.6398 228.599 22.3598C228.599 24.0798 230.062 25.5283 231.8 25.5283C233.537 25.5283 235 24.0798 235 22.3598C235 20.6398 233.537 19.1914 231.8 19.1914ZM214.792 10.7725C213.054 10.7725 211.591 12.2209 211.591 13.9409C211.591 15.6609 213.054 17.1093 214.792 17.1093C216.529 17.1093 217.992 15.6609 217.992 13.9409C217.992 12.2209 216.529 10.7725 214.792 10.7725ZM223.296 10.7725C221.558 10.7725 220.095 12.2209 220.095 13.9409C220.095 15.6609 221.558 17.1093 223.296 17.1093C225.033 17.1093 226.496 15.6609 226.496 13.9409C226.496 12.2209 225.033 10.7725 223.296 10.7725ZM197.693 10.7725C195.955 10.7725 194.492 12.2209 194.492 13.9409C194.492 15.6609 195.955 17.1093 197.693 17.1093C199.43 17.1093 200.893 15.6609 200.893 13.9409C200.893 12.2209 199.521 10.7725 197.693 10.7725ZM206.288 2.35352C204.551 2.35352 203.088 3.80194 203.088 5.52194C203.088 7.24194 204.551 8.69036 206.288 8.69036C208.025 8.69036 209.488 7.24194 209.488 5.52194C209.397 3.71141 208.025 2.35352 206.288 2.35352ZM214.792 2.35352C213.054 2.35352 211.591 3.80194 211.591 5.52194C211.591 7.24194 213.054 8.69036 214.792 8.69036C216.529 8.69036 217.992 7.24194 217.992 5.52194C217.992 3.71141 216.529 2.35352 214.792 2.35352ZM197.693 2.35352C195.955 2.35352 194.492 3.80194 194.492 5.52194C194.492 7.24194 195.955 8.69036 197.693 8.69036C199.43 8.69036 200.893 7.24194 200.893 5.52194C200.893 3.71141 199.521 2.35352 197.693 2.35352ZM206.288 27.6104C204.551 27.6104 203.088 29.0588 203.088 30.7788C203.088 32.4988 204.551 33.9472 206.288 33.9472C208.025 33.9472 209.488 32.4988 209.488 30.7788C209.397 29.0588 208.025 27.6104 206.288 27.6104ZM214.792 27.6104C213.054 27.6104 211.591 29.0588 211.591 30.7788C211.591 32.4988 213.054 33.9472 214.792 33.9472C216.529 33.9472 217.992 32.4988 217.992 30.7788C217.992 29.0588 216.529 27.6104 214.792 27.6104ZM223.296 27.6104C221.558 27.6104 220.095 29.0588 220.095 30.7788C220.095 32.4988 221.558 33.9472 223.296 33.9472C225.033 33.9472 226.496 32.4988 226.496 30.7788C226.496 29.0588 225.033 27.6104 223.296 27.6104ZM197.693 27.6104C195.955 27.6104 194.492 29.0588 194.492 30.7788C194.492 32.4988 195.955 33.9472 197.693 33.9472C199.43 33.9472 200.893 32.4988 200.893 30.7788C200.893 29.0588 199.521 27.6104 197.693 27.6104ZM206.288 36.0293C204.551 36.0293 203.088 37.4777 203.088 39.1977C203.088 40.9177 204.551 42.3661 206.288 42.3661C208.025 42.3661 209.488 40.9177 209.488 39.1977C209.397 37.4777 208.025 36.0293 206.288 36.0293ZM214.792 36.0293C213.054 36.0293 211.591 37.4777 211.591 39.1977C211.591 40.9177 213.054 42.3661 214.792 42.3661C216.529 42.3661 217.992 40.9177 217.992 39.1977C217.992 37.4777 216.529 36.0293 214.792 36.0293ZM197.693 36.0293C195.955 36.0293 194.492 37.4777 194.492 39.1977C194.492 40.9177 195.955 42.3661 197.693 42.3661C199.43 42.3661 200.893 40.9177 200.893 39.1977C200.893 37.4777 199.521 36.0293 197.693 36.0293Z" fill="black"/>
<path d="M27.6148 29.6926C27.6148 32.3179 26.9747 34.5811 25.786 36.5726C24.5058 38.5642 22.7685 40.1032 20.3911 41.28C18.1051 42.3663 15.3619 42.9095 12.1615 42.9095C9.50973 42.9095 7.31518 42.7284 5.57782 42.3663C3.84047 42.0042 1.92023 41.28 0 40.2842V30.3263C2.10311 31.4126 4.20623 32.2274 6.40078 32.861C8.59533 33.4947 10.607 33.7663 12.4358 33.7663C13.9903 33.7663 15.179 33.4947 15.9105 32.861C16.642 32.3179 17.0078 31.5032 17.0078 30.5979C17.0078 30.0547 16.8249 29.5116 16.5506 29.0589C16.2763 28.6063 15.8191 28.1537 15.0875 27.7916C14.4475 27.3389 12.7101 26.4337 9.87549 25.0758C7.31518 23.8084 5.39494 22.6316 4.11479 21.4547C2.83463 20.2779 1.82879 19.1011 1.28016 17.5621C0.640078 16.0232 0.365759 14.3032 0.365759 12.2211C0.365759 8.41895 1.64591 5.34105 4.29767 3.25895C6.94942 1.17684 10.5156 0 15.179 0C19.2938 0 23.4086 0.995789 27.6148 2.98737L24.323 11.6779C20.6654 9.86737 17.465 8.9621 14.8132 8.9621C13.4416 8.9621 12.4358 9.23368 11.7957 9.77684C11.1556 10.32 10.8813 10.9537 10.8813 11.6779C10.8813 12.4926 11.2471 13.2168 12.07 13.8505C12.893 14.4842 14.9961 15.6611 18.5623 17.3811C21.9455 19.0105 24.323 20.7305 25.6031 22.6316C26.9747 24.5326 27.6148 26.8863 27.6148 29.6926Z" fill="black"/>
<path d="M45.2627 34.1287C46.6343 34.1287 48.3716 33.7665 50.3833 33.0423V41.1897C49.0117 41.8234 47.6401 42.276 46.36 42.5476C45.0798 42.8192 43.6168 43.0002 41.8794 43.0002C38.3133 43.0002 35.8444 42.095 34.1985 40.2844C32.644 38.4739 31.821 35.5771 31.821 31.775V18.3771H28.1635V13.8508L32.8269 10.3202L35.5701 3.53076H42.428V10.0487H49.9261V18.4676H42.428V31.0508C42.3366 33.1329 43.3424 34.1287 45.2627 34.1287Z" fill="black"/>
<path d="M72.7859 42.457L70.7743 38.2022H70.5914C69.2198 40.1033 67.7567 41.3706 66.2937 42.0043C64.8307 42.638 62.9104 43.0001 60.6244 43.0001C57.7898 43.0001 55.5038 42.0948 53.8579 40.2843C52.212 38.4738 51.389 35.8485 51.389 32.5896C51.389 29.1496 52.4863 26.6148 54.7723 24.8948C57.0583 23.1748 60.2587 22.2696 64.5564 22.0885L69.677 21.9075V21.4548C69.677 18.8296 68.3968 17.4717 65.9279 17.4717C63.7334 17.4717 60.8988 18.2864 57.4241 19.9159L54.3151 12.4022C57.8813 10.5012 62.3618 9.50537 67.7567 9.50537C71.6887 9.50537 74.7062 10.5012 76.8093 12.5833C78.9124 14.6654 80.0097 17.5622 80.0097 21.1833V42.457H72.7859ZM64.9221 35.1243C66.2023 35.1243 67.2995 34.6717 68.2139 33.857C69.1283 32.9517 69.5855 31.8654 69.5855 30.5075V27.9727L67.2081 28.0633C63.7334 28.1538 61.996 29.5117 61.996 32.1369C61.996 34.1285 63.0019 35.1243 64.9221 35.1243Z" fill="black"/>
<path d="M102.87 9.41455C103.784 9.41455 104.698 9.50508 105.521 9.68613L106.07 9.77666L105.156 20.3682C104.333 20.0967 103.144 20.0061 101.589 20.0061C99.3035 20.0061 97.6575 20.5493 96.5603 21.6356C95.5544 22.7219 95.0058 24.3514 95.0058 26.4335V42.3661H84.4902V10.0482H92.354L94 15.2082H94.5486C95.463 13.4882 96.6517 12.1303 98.2062 11.044C99.6692 9.95771 101.224 9.41455 102.87 9.41455Z" fill="black"/>
<path d="M122.438 34.1287C123.809 34.1287 125.547 33.7665 127.558 33.0423V41.1897C126.187 41.8234 124.815 42.276 123.535 42.5476C122.255 42.8192 120.792 43.0002 119.054 43.0002C115.488 43.0002 113.019 42.095 111.374 40.2844C109.819 38.4739 108.996 35.5771 108.996 31.775V18.3771H105.339V13.8508L110.002 10.3202L112.745 3.53076H119.603V10.0487H127.101V18.4676H119.603V31.0508C119.603 33.1329 120.609 34.1287 122.438 34.1287Z" fill="black"/>
<path d="M156.453 29.6926C156.453 32.3179 155.813 34.5811 154.624 36.5726C153.344 38.5642 151.607 40.1032 149.23 41.28C146.944 42.3663 144.2 42.9095 141 42.9095C138.348 42.9095 136.154 42.7284 134.416 42.3663C132.679 42.0042 130.759 41.28 128.839 40.2842V30.3263C130.85 31.4126 132.953 32.3179 135.148 32.9516C137.342 33.5853 139.354 33.8568 141.183 33.8568C142.737 33.8568 143.926 33.5853 144.658 32.9516C145.389 32.4084 145.755 31.5937 145.755 30.6884C145.755 30.1453 145.572 29.6021 145.298 29.1495C145.023 28.6968 144.566 28.2442 143.835 27.8821C143.195 27.4295 141.457 26.5242 138.623 25.1663C136.062 23.8989 134.142 22.7221 132.862 21.5453C131.582 20.3684 130.667 19.0105 130.027 17.5621C129.387 16.0232 129.113 14.3032 129.113 12.2211C129.113 8.41895 130.393 5.34105 133.045 3.25895C135.696 1.08632 139.263 0 143.926 0C148.041 0 152.156 0.995789 156.362 2.98737L153.07 11.6779C149.412 9.86737 146.212 8.9621 143.56 8.9621C142.189 8.9621 141.183 9.23368 140.543 9.77684C139.903 10.32 139.628 10.9537 139.628 11.6779C139.628 12.4926 139.994 13.2168 140.817 13.8505C141.64 14.4842 143.743 15.6611 147.309 17.3811C150.693 19.0105 153.07 20.7305 154.35 22.6316C155.813 24.5326 156.453 26.8863 156.453 29.6926Z" fill="black"/>
<path d="M173.918 43.0001C168.889 43.0001 164.866 41.5517 162.122 38.6548C159.288 35.758 157.916 31.6843 157.916 26.4338C157.916 21.0022 159.196 16.7475 161.848 13.8506C164.408 10.9538 168.158 9.50537 173.004 9.50537C177.576 9.50537 181.142 10.7727 183.611 13.3075C186.08 15.8422 187.36 19.5538 187.36 24.2612V29.2401H168.523C168.615 31.0506 169.255 32.4991 170.352 33.4948C171.541 34.4906 173.095 35.0338 175.198 35.0338C177.027 35.0338 178.765 34.8527 180.319 34.4906C181.873 34.1285 183.519 33.4948 185.348 32.5896V40.6464C183.702 41.5517 181.965 42.1854 180.228 42.5475C178.49 42.9096 176.296 43.0001 173.918 43.0001ZM173.278 17.0191C171.998 17.0191 170.992 17.4717 170.169 18.2864C169.346 19.1012 168.889 20.4591 168.706 22.1791H177.759C177.759 20.6401 177.301 19.3727 176.479 18.4675C175.656 17.5622 174.65 17.0191 173.278 17.0191Z" fill="black"/>
</g>
</svg>
